<?xml version="1.0" encoding="UTF-8"?><!DOCTYPE svg PUBLIC "-//W3C//DTD SVG 1.1//EN" "http://www.w3.org/Graphics/SVG/1.1/DTD/svg11.dtd"><svg xmlns="http://www.w3.org/2000/svg" xmlns:xlink="http://www.w3.org/1999/xlink" version="1.1" width="64px" height="64px" style="shape-rendering:geometricPrecision; text-rendering:geometricPrecision; image-rendering:optimizeQuality; fill-rule:evenodd; clip-rule:evenodd">
<g><path style="opacity:0.86" fill="#4f6f52" d="M 2.5,18.5 C 21.8362,18.3334 41.1695,18.5 60.5,19C 61.8333,20.6667 61.8333,22.3333 60.5,24C 41.1667,24.6667 21.8333,24.6667 2.5,24C 1.24751,22.1722 1.24751,20.3388 2.5,18.5 Z"/></g>
<g><path style="opacity:0.754" fill="#4f6f52" d="M 3.5,31.5 C 22.1696,31.3334 40.8363,31.5001 59.5,32C 62.3264,34.5219 61.9931,36.5219 58.5,38C 40.5,38.6667 22.5,38.6667 4.5,38C 0.899514,36.3595 0.566181,34.1928 3.5,31.5 Z"/></g>
<g><path style="opacity:0.87" fill="#4f6f52" d="M 2.5,45.5 C 21.8362,45.3334 41.1695,45.5 60.5,46C 61.8602,47.9376 61.5268,49.6043 59.5,51C 40.8333,51.6667 22.1667,51.6667 3.5,51C 1.3652,49.4443 1.03187,47.6109 2.5,45.5 Z"/></g>
</svg>